<svg xmlns="http://www.w3.org/2000/svg" viewBox="0 0 64 64"><radialGradient id="dCi_Vz~KjpU6SGgghg~Lga" cx="31.5" cy="32" r="30.259" gradientTransform="matrix(1 0 0 -1 0 64)" gradientUnits="userSpaceOnUse"><stop offset="0" stop-color="#afeeff"/><stop offset=".193" stop-color="#bbf1ff"/><stop offset=".703" stop-color="#d7f8ff"/><stop offset="1" stop-color="#e1faff"/></radialGradient><path fill="url(#dCi_Vz~KjpU6SGgghg~Lga)" d="M52.5,23h5c1.933,0,3.5,1.567,3.5,3.5l0,0c0,1.933-1.567,3.5-3.5,3.5h-15c-1.21,0-2.179,1.089-1.97,2.339C40.695,33.323,41.626,34,42.624,34H55.5c1.933,0,3.5,1.567,3.5,3.5l0,0c0,1.933-1.567,3.5-3.5,3.5H43.75c-1.21,0-2.179,1.089-1.97,2.339C41.945,44.323,42.876,45,43.874,45h5.376c2.173,0,3.895,2.005,3.418,4.249C52.321,50.882,50.795,52,49.126,52H44c-1.205,0-2.173,1.072-1.972,2.326C42.186,55.314,43.113,56,44.115,56H55.5c1.933,0,3.5,1.567,3.5,3.5l0,0c0,1.933-1.567,3.5-3.5,3.5h-50C3.567,63,2,61.433,2,59.5l0,0C2,57.567,3.567,56,5.5,56H10c1.105,0,2-0.895,2-2l0,0c0-1.105-0.895-2-2-2H6.5C4.567,52,3,50.433,3,48.5l0,0C3,46.567,4.567,45,6.5,45h6.25c1.205,0,2.173-1.072,1.972-2.326C14.564,41.686,13.637,41,12.635,41H9.5C7.567,41,6,39.433,6,37.5l0,0C6,35.567,7.567,34,9.5,34h8.25c1.21,0,2.179-1.089,1.97-2.339C19.555,30.677,18.624,30,17.626,30H5.5C3.567,30,2,28.433,2,26.5l0,0C2,24.567,3.565,23,5.498,23c3.138,0,7.252,0,7.252,0c1.21,0,2.179-1.089,1.97-2.339C14.555,19.677,13.624,19,12.626,19H11v-7h1.75c1.205,0,2.173-1.072,1.972-2.326C14.564,8.686,13.637,8,12.635,8H6.5C4.567,8,3,6.433,3,4.5l0,0C3,2.567,4.567,1,6.5,1h50c0.96,0,1.84,0.39,2.47,1.03c0.611,0.601,0.994,1.43,1.028,2.339C60.072,6.365,58.301,8,56.304,8h-6.305c-1.205,0-2.173,1.072-1.972,2.326C48.184,11.314,49.112,12,50.113,12H50.5C52.17,12,51.4,23,52.5,23z"/><path fill="#ffeb9b" d="M49.722,57.828l8.107-8.107c1.562-1.562,1.562-4.095,0-5.657L19.937,6.172 c-1.562-1.562-4.095-1.562-5.657,0l-8.107,8.107c-1.562,1.562-1.562,4.095,0,5.657l37.892,37.892 C45.626,59.391,48.16,59.391,49.722,57.828z"/><linearGradient id="dCi_Vz~KjpU6SGgghg~Lgb" x1="-397.547" x2="-397.547" y1="-1232.922" y2="-1265.125" gradientTransform="matrix(-1 0 0 1 -360 1276)" gradientUnits="userSpaceOnUse"><stop offset="0" stop-color="#f6985f"/><stop offset="1" stop-color="#f3a45d"/></linearGradient><path fill="url(#dCi_Vz~KjpU6SGgghg~Lgb)" d="M47.153,33.392l2.12,2.12l-5.38,5.38c-0.59,0.59-1.53,0.59-2.12,0s-0.59-1.53,0-2.12 L47.153,33.392z M28.644,14.883l2.12,2.12l-5.38,5.38c-0.59,0.59-1.53,0.59-2.12,0s-0.59-1.53,0-2.12L28.644,14.883z M21.264,12.263l2.38-2.38l2.12,2.12l-2.38,2.38c-0.59,0.59-1.53,0.59-2.12,0C20.674,13.793,20.674,12.853,21.264,12.263z M52.153,38.392l2.12,2.12l-2.38,2.38c-0.59,0.59-1.53,0.59-2.12,0s-0.59-1.53,0-2.12L52.153,38.392z"/><g><linearGradient id="dCi_Vz~KjpU6SGgghg~Lgc" x1="13.191" x2="13.191" y1="-1233.342" y2="-1219.344" gradientTransform="translate(.812 1276.342)" gradientUnits="userSpaceOnUse"><stop offset="0" stop-color="#a4a4a4"/><stop offset=".63" stop-color="#7f7f7f"/><stop offset="1" stop-color="#6f6f6f"/><stop offset="1" stop-color="#6f6f6f"/></linearGradient><path fill="url(#dCi_Vz~KjpU6SGgghg~Lgc)" d="M11,43L7.024,55.802c-0.065,0.328,0.037,0.667,0.273,0.903 c0.189,0.189,0.444,0.293,0.707,0.293c0.065,0,0.131-0.007,0.196-0.02L21,53L11,43z"/><linearGradient id="dCi_Vz~KjpU6SGgghg~Lgd" x1="27.855" x2="27.855" y1="-1223.342" y2="-1258.685" gradientTransform="translate(.812 1276.342)" gradientUnits="userSpaceOnUse"><stop offset="0" stop-color="#ff8b67"/><stop offset=".847" stop-color="#ffa76a"/><stop offset="1" stop-color="#ffad6b"/><stop offset="1" stop-color="#ffad6b"/></linearGradient><path fill="url(#dCi_Vz~KjpU6SGgghg~Lgd)" d="M46.074,26.654l-8.745-8.745C36.938,17.518,36.391,17.609,36,18L11,43c0.5,0.5,9,9,10,10 l25-25C46.391,27.609,46.465,27.045,46.074,26.654z"/><linearGradient id="dCi_Vz~KjpU6SGgghg~Lge" x1="15.066" x2="15.066" y1="8.778" y2="21.353" gradientTransform="matrix(1 0 0 -1 0 64)" gradientUnits="userSpaceOnUse"><stop offset="0" stop-color="#ffc662"/><stop offset=".004" stop-color="#ffc662"/><stop offset=".609" stop-color="#ffc582"/><stop offset="1" stop-color="#ffc491"/><stop offset="1" stop-color="#ffc491"/></linearGradient><path fill="url(#dCi_Vz~KjpU6SGgghg~Lge)" d="M21,53l-6.856,2.131c-0.709,0.221-1.483,0.03-2.008-0.496l-2.771-2.771 c-0.525-0.525-0.716-1.299-0.496-2.008L11,43l3.794-0.345c0.982-0.089,1.882,0.55,2.121,1.507l0.294,1.174 c0.179,0.717,0.739,1.276,1.455,1.455l1.174,0.294c0.956,0.239,1.596,1.14,1.507,2.121L21,53z"/><linearGradient id="dCi_Vz~KjpU6SGgghg~Lgf" x1="48.747" x2="48.747" y1="-1254.481" y2="-1269.341" gradientTransform="translate(.812 1276.342)" gradientUnits="userSpaceOnUse"><stop offset="0" stop-color="#ff634d"/><stop offset=".204" stop-color="#fe6464"/><stop offset=".521" stop-color="#fc6581"/><stop offset=".794" stop-color="#fa6694"/><stop offset=".989" stop-color="#fa669a"/><stop offset="1" stop-color="#fa669a"/></linearGradient><path fill="url(#dCi_Vz~KjpU6SGgghg~Lgf)" d="M55.552,11.484l-3.043-3.041c-1.925-1.923-5.045-1.923-6.97,0l-3.127,3.124 c-0.385,0.385-0.385,1.008,0,1.393l8.62,8.612c0.192,0.192,0.445,0.289,0.697,0.289s0.505-0.097,0.697-0.289l3.127-3.124 C57.476,16.525,57.476,13.407,55.552,11.484z"/><linearGradient id="dCi_Vz~KjpU6SGgghg~Lgg" x1="44.75" x2="44.75" y1="54.172" y2="35.328" gradientTransform="matrix(1 0 0 -1 0 64)" gradientUnits="userSpaceOnUse"><stop offset="0" stop-color="#b2b2b2"/><stop offset=".594" stop-color="#949494"/><stop offset="1" stop-color="#848484"/><stop offset="1" stop-color="#848484"/></linearGradient><path fill="url(#dCi_Vz~KjpU6SGgghg~Lgg)" d="M53.586,22.414l-5.672,5.672c-0.781,0.781-2.047,0.781-2.828,0l-9.172-9.172 c-0.781-0.781-0.781-2.047,0-2.828l5.672-5.672c0.781-0.781,2.047-0.781,2.828,0l9.172,9.172 C54.367,20.367,54.367,21.633,53.586,22.414z"/></g></svg>