<svg xmlns="http://www.w3.org/2000/svg" viewBox="0 0 40 40"><path fill="#98ccfd" d="M1.5 15.5H39.5V35.5H1.5z"/><path fill="#4788c7" d="M39,16v19H2V16H39 M40,15H1v21h39V15L40,15z"/><path fill="none" stroke="#4788c7" stroke-linecap="round" stroke-width="2" d="M21,15 c0-9.714,13-3.286,13-13"/><path fill="#fff" d="M13 30H28V33H13zM29 30H32V33H29zM33 30H36V33H33zM9 30H12V33H9zM5 30H8V33H5zM29 26H36V29H29zM25 26H28V29H25zM21 26H24V29H21zM17 26H20V29H17zM13 26H16V29H13zM5 26H12V29H5zM5 22H9V25H5zM14 22H17V25H14zM18 22H21V25H18zM22 22H25V25H22zM26 22H29V25H26zM30 22H36V25H30zM33 18H36V21H33zM29 18H32V21H29zM25 18H28V21H25zM21 18H24V21H21zM17 18H20V21H17zM13 18H16V21H13zM9 18H12V21H9zM5 18H8V21H5zM10 22H13V25H10z"/></svg>