<svg xmlns="http://www.w3.org/2000/svg" viewBox="0 0 48 48"><path fill="#42a5f5" d="M8,39.001v-30c0-2.2,1.8-4,4-4h24c2.2,0,4,1.8,4,4v30c0,2.2-1.8,4-4,4H12C9.8,43.001,8,41.201,8,39.001z"/><path fill="#1e88e5" d="M14,8.001c0-1.105-0.895-2-2-2s-2,0.895-2,2s0.895,2,2,2S14,9.105,14,8.001z M22,8.001c0-1.105-0.895-2-2-2s-2,0.895-2,2s0.895,2,2,2S22,9.105,22,8.001z M30,8.001c0-1.105-0.895-2-2-2s-2,0.895-2,2s0.895,2,2,2S30,9.105,30,8.001z M38,8.001c0-1.105-0.895-2-2-2s-2,0.895-2,2s0.895,2,2,2S38,9.105,38,8.001z"/><path fill="#cfd8dc" d="M11,8.001v-4c0-0.6,0.4-1,1-1l0,0c0.6,0,1,0.4,1,1v4c0,0.6-0.4,1-1,1l0,0C11.4,9.001,11,8.601,11,8.001z M19,8.001v-4c0-0.6,0.4-1,1-1l0,0c0.6,0,1,0.4,1,1v4c0,0.6-0.4,1-1,1l0,0C19.4,9.001,19,8.601,19,8.001z M27,8.001v-4c0-0.6,0.4-1,1-1l0,0c0.6,0,1,0.4,1,1v4c0,0.6-0.4,1-1,1l0,0C27.4,9.001,27,8.601,27,8.001z M35,8.001v-4c0-0.6,0.4-1,1-1l0,0c0.6,0,1,0.4,1,1v4c0,0.6-0.4,1-1,1l0,0C35.4,9.001,35,8.601,35,8.001z"/><path fill="#1565c0" d="M14,19.001h19.993v2H14V19.001z M14.007,15.001H34v2H14.007V15.001z M14,30.001h17v2H14V30.001z M27,34.001h6.993v2H27V34.001z M14,34.001h11v2H14V34.001z M21,23.001h-7v2h7V23.001z"/></svg>